<svg width="200" height="48" viewBox="0 0 200 48" fill="none" xmlns="http://www.w3.org/2000/svg">
<path d="M39.375 2.09375C39.6875 2.13542 39.9062 2.25 40.0312 2.4375C40.1771 2.625 40.25 2.85417 40.25 3.125C40.25 3.47917 40.1458 3.85417 39.9375 4.25C39.7292 4.64583 39.3854 5.08333 38.9062 5.5625C37.0521 7.35417 35.3958 8.96875 33.9375 10.4062C32.5 11.8229 31.1875 13.1458 30 14.375C28.8125 15.5833 27.7292 16.7292 26.75 17.8125C25.7708 18.8958 24.8229 19.9792 23.9062 21.0625C23.0104 22.125 22.1042 23.2292 21.1875 24.375C20.2708 25.5208 19.2917 26.7604 18.25 28.0938C19.1458 28.0104 20.1042 27.9375 21.125 27.875C22.1458 27.7917 23.1875 27.75 24.25 27.75C25.1042 27.75 25.9167 27.7812 26.6875 27.8438C27.4792 27.9062 28.2083 28.0104 28.875 28.1562C29.4375 26.6146 30.1458 24.8958 31 23C31.8542 21.0833 32.7604 19.1458 33.7188 17.1875C34.6979 15.2292 35.6667 13.3229 36.625 11.4688C37.6042 9.59375 38.4792 7.92708 39.25 6.46875C40.0417 4.98958 40.6875 3.78125 41.1875 2.84375C41.6875 1.90625 41.9583 1.39583 42 1.3125C42 1.27083 42.0625 1.25 42.1875 1.25C42.25 1.25 42.3333 1.26042 42.4375 1.28125C42.5417 1.30208 42.6458 1.3125 42.75 1.3125C42.7917 1.3125 42.8229 1.30208 42.8438 1.28125C42.8646 1.26042 42.8958 1.25 42.9375 1.25H43.0938C43.2188 1.25 43.3333 1.30208 43.4375 1.40625C43.5625 1.48958 43.6771 1.55208 43.7812 1.59375C44.1354 1.78125 44.4375 1.96875 44.6875 2.15625C44.9375 2.32292 45.0625 2.60417 45.0625 3C45.0625 3.0625 45.0625 3.13542 45.0625 3.21875C45.0625 3.30208 45.0417 3.39583 45 3.5C44.9583 3.6875 44.7604 4.21875 44.4062 5.09375C44.0729 5.96875 43.6354 7.0625 43.0938 8.375C42.5521 9.6875 41.9271 11.1667 41.2188 12.8125C40.5312 14.4583 39.8021 16.1458 39.0312 17.875C38.2812 19.6042 37.5208 21.3229 36.75 23.0312C36 24.7188 35.2917 26.2708 34.625 27.6875C34.1875 28.6042 33.2917 30.5729 31.9375 33.5938C30.6042 36.5938 28.7708 40.6875 26.4375 45.875C26.375 46.0417 26.2917 46.1458 26.1875 46.1875C26.0833 46.2292 25.9792 46.25 25.875 46.25C25.7708 46.25 25.6667 46.2396 25.5625 46.2188C25.4792 46.1979 25.4062 46.1875 25.3438 46.1875C25.2396 46.1875 25.1562 46.25 25.0938 46.375C24.9479 46.6458 24.7396 46.7812 24.4688 46.7812C24.2188 46.7812 24.0625 46.7083 24 46.5625C23.8958 46.3958 23.7188 46.2396 23.4688 46.0938C23.2396 45.9479 23.0729 45.7292 22.9688 45.4375C22.9271 45.3125 22.875 45.1979 22.8125 45.0938C22.75 44.9896 22.6875 44.875 22.625 44.75C22.5833 44.6042 22.5417 44.4479 22.5 44.2812C22.4792 44.0938 22.4688 43.8542 22.4688 43.5625C22.4688 43.1875 22.4688 42.9062 22.4688 42.7188C22.4896 42.5312 22.5 42.3854 22.5 42.2812C22.5208 42.1562 22.5417 42.0729 22.5625 42.0312C22.5833 41.9688 22.6146 41.8854 22.6562 41.7812C23.5312 39.5729 24.3125 37.6979 25 36.1562C25.7083 34.6146 26.3125 33.3125 26.8125 32.25C25.9583 32.3333 24.9896 32.4167 23.9062 32.5C22.8438 32.5625 21.75 32.625 20.625 32.6875C19.5 32.75 18.3854 32.8229 17.2812 32.9062C16.1979 32.9688 15.2188 33.0417 14.3438 33.125C13.9688 33.5833 13.4792 34.1667 12.875 34.875C12.2917 35.5833 11.6562 36.3333 10.9688 37.125C10.3021 37.8958 9.625 38.6771 8.9375 39.4688C8.25 40.2604 7.625 40.9896 7.0625 41.6562C6.5 42.3021 6.03125 42.8438 5.65625 43.2812C5.28125 43.7188 5.08333 43.9688 5.0625 44.0312C4.875 44.3021 4.63542 44.6146 4.34375 44.9688C4.03125 45.3229 3.72917 45.6667 3.4375 46C3.125 46.3125 2.84375 46.5833 2.59375 46.8125C2.32292 47.0417 2.125 47.1562 2 47.1562C1.83333 47.1562 1.71875 47.0208 1.65625 46.75C1.59375 46.5 1.51042 46.25 1.40625 46C1.23958 45.6458 1.08333 45.3125 0.9375 45C0.770833 44.6667 0.635417 44.3438 0.53125 44.0312C0.53125 43.9896 0.520833 43.9479 0.5 43.9062C0.479167 43.8646 0.46875 43.8125 0.46875 43.75C0.46875 43.5417 0.510417 43.2917 0.59375 43C0.677083 42.6875 0.78125 42.375 0.90625 42.0625C1.01042 41.75 1.125 41.4688 1.25 41.2188C1.375 40.9479 1.48958 40.75 1.59375 40.625C2.46875 39.4375 3.33333 38.2812 4.1875 37.1562C5.02083 36.0312 5.88542 34.9062 6.78125 33.7812C6.28125 33.7812 5.91667 33.7708 5.6875 33.75C5.47917 33.7083 5.35417 33.6354 5.3125 33.5312C5.27083 33.3854 5.19792 33.2917 5.09375 33.25C5.01042 33.2083 4.92708 33.1875 4.84375 33.1875C4.73958 33.1667 4.65625 33.1354 4.59375 33.0938C4.53125 33.0521 4.5 32.9583 4.5 32.8125C4.5 32.6875 4.51042 32.5312 4.53125 32.3438C4.53125 32.1354 4.55208 31.9271 4.59375 31.7188C4.61458 31.5104 4.65625 31.3229 4.71875 31.1562C4.76042 30.9896 4.8125 30.8854 4.875 30.8438C5.0625 30.6354 5.40625 30.4375 5.90625 30.25C6.40625 30.0417 7.04167 29.7917 7.8125 29.5C8.41667 29.2917 9.41667 29.0938 10.8125 28.9062C13.0625 26.2604 15.2917 23.7604 17.5 21.4062C19.7083 19.0521 21.8229 16.8958 23.8438 14.9375C25.8646 12.9583 27.7396 11.1875 29.4688 9.625C31.2188 8.0625 32.75 6.73958 34.0625 5.65625C35.3958 4.55208 36.4688 3.70833 37.2812 3.125C38.1146 2.52083 38.6146 2.19792 38.7812 2.15625C38.8854 2.15625 38.9792 2.14583 39.0625 2.125C39.1667 2.10417 39.2708 2.09375 39.375 2.09375ZM83.5625 34.75C83.4583 34.8125 83.375 34.8646 83.3125 34.9062C83.2708 34.9479 83.2292 35 83.1875 35.0625C83.1667 35.125 83.1458 35.2188 83.125 35.3438C83.125 35.4479 83.1146 35.6042 83.0938 35.8125C83.0729 36.0208 83.0417 36.1979 83 36.3438C82.9792 36.4896 82.9271 36.6354 82.8438 36.7812C82.7812 36.9271 82.6771 37.0729 82.5312 37.2188C82.3854 37.3646 82.1979 37.5417 81.9688 37.75C81.8229 37.875 81.5521 38.1875 81.1562 38.6875C80.7604 39.1667 80.25 39.7396 79.625 40.4062C79 41.0729 78.2604 41.7812 77.4062 42.5312C76.5521 43.2604 75.5938 43.9375 74.5312 44.5625C73.4688 45.1875 72.3021 45.6979 71.0312 46.0938C69.7812 46.5104 68.4271 46.7188 66.9688 46.7188C65.8229 46.7188 64.8438 46.4375 64.0312 45.875C63.2396 45.2917 62.5625 44.5312 62 43.5938C61.4583 42.6562 61.0104 41.5833 60.6562 40.375C60.3229 39.1458 60.0417 37.8854 59.8125 36.5938C59.5833 35.2812 59.3854 33.9896 59.2188 32.7188C59.0729 31.4479 58.9062 30.2812 58.7188 29.2188C58.5521 28.5521 58.3229 28.0104 58.0312 27.5938C57.7604 27.1771 57.4375 26.8542 57.0625 26.625C56.6875 26.3958 56.2812 26.2396 55.8438 26.1562C55.4271 26.0729 55 26.0312 54.5625 26.0312C54.3958 26.0312 54.25 26.0312 54.125 26.0312C54 26.0312 53.8646 26.0521 53.7188 26.0938C52.9896 27.1146 52.1667 28.2812 51.25 29.5938C50.3542 30.9062 49.4375 32.25 48.5 33.625C47.5625 35 46.6458 36.3646 45.75 37.7188C44.8542 39.0521 44.0417 40.2708 43.3125 41.375C42.6042 42.4792 42.0104 43.4062 41.5312 44.1562C41.0521 44.9062 40.7708 45.375 40.6875 45.5625C40.4167 46.1458 40.1979 46.5625 40.0312 46.8125C39.8646 47.0833 39.6562 47.2188 39.4062 47.2188C39.3438 47.2188 39.2812 47.2188 39.2188 47.2188C39.1354 47.2188 39.0625 47.1979 39 47.1562C38.5833 47.0312 38.1875 46.8333 37.8125 46.5625C37.4375 46.2917 37.1354 45.9167 36.9062 45.4375C36.8021 45.2083 36.7292 45.0625 36.6875 45C36.625 44.9375 36.5833 44.8646 36.5625 44.7812C36.5208 44.6979 36.4896 44.5729 36.4688 44.4062C36.4271 44.2396 36.375 43.9375 36.3125 43.5C36.2708 43.3958 36.25 43.2917 36.25 43.1875C36.25 43.0833 36.25 42.9792 36.25 42.875C36.25 42.6042 36.2917 42.3021 36.375 41.9688C36.4375 41.6354 36.5729 41.2396 36.7812 40.7812C36.9896 40.3229 37.2812 39.7812 37.6562 39.1562C38.0312 38.5104 38.5208 37.7396 39.125 36.8438C39.7292 35.9479 40.4479 34.9167 41.2812 33.75C42.1354 32.5833 43.1458 31.2292 44.3125 29.6875C45.3958 28.25 46.5521 26.7812 47.7812 25.2812C49.0104 23.7812 50.25 22.3021 51.5 20.8438C52.7708 19.3854 54.0312 17.9688 55.2812 16.5938C56.5312 15.1979 57.7083 13.8958 58.8125 12.6875C59.9167 11.4792 60.9167 10.3854 61.8125 9.40625C62.7292 8.42708 63.4896 7.61458 64.0938 6.96875C62.4062 7.32292 60.8438 7.6875 59.4062 8.0625C57.9688 8.4375 56.7812 8.8125 55.8438 9.1875C55.7188 9.25 55.6042 9.30208 55.5 9.34375C55.3958 9.38542 55.2917 9.40625 55.1875 9.40625C55.0208 9.40625 54.9062 9.34375 54.8438 9.21875C54.7812 9.09375 54.6875 9 54.5625 8.9375C54.4792 8.89583 54.4375 8.83333 54.4375 8.75C54.4375 8.66667 54.5625 8.5 54.8125 8.25C54.8958 8.14583 54.9479 8.07292 54.9688 8.03125C54.9896 7.98958 55 7.94792 55 7.90625C55.0208 7.86458 55.0625 7.8125 55.125 7.75C55.2083 7.6875 55.3438 7.59375 55.5312 7.46875C55.6562 7.34375 55.7188 7.23958 55.7188 7.15625C55.7188 7.05208 55.6458 6.97917 55.5 6.9375C55.3542 6.89583 55.2812 6.84375 55.2812 6.78125C55.4062 6.65625 55.5 6.57292 55.5625 6.53125C55.625 6.46875 55.6771 6.42708 55.7188 6.40625C55.7604 6.38542 55.8125 6.36458 55.875 6.34375C55.9375 6.32292 56.0312 6.29167 56.1562 6.25C56.3854 6.125 56.875 5.90625 57.625 5.59375C58.375 5.26042 59.3021 4.89583 60.4062 4.5C61.5312 4.08333 62.8021 3.65625 64.2188 3.21875C65.6562 2.78125 67.1667 2.38542 68.75 2.03125C70.3542 1.65625 72.0104 1.35417 73.7188 1.125C75.4271 0.875 77.125 0.75 78.8125 0.75H79.4062C80.4062 0.791667 81.2917 0.90625 82.0625 1.09375C82.8333 1.28125 83.5 1.53125 84.0625 1.84375C84.625 2.15625 85.0938 2.51042 85.4688 2.90625C85.8438 3.30208 86.1458 3.71875 86.375 4.15625C87.0833 4.80208 87.6042 5.54167 87.9375 6.375C88.2917 7.1875 88.4688 8.04167 88.4688 8.9375C88.4688 9.58333 88.3438 10.3646 88.0938 11.2812C87.8646 12.1979 87.3438 13.1875 86.5312 14.25C85.7188 15.2917 84.5417 16.375 83 17.5C81.4583 18.6042 79.3854 19.6771 76.7812 20.7188C74.7812 21.5104 72.8958 22.1771 71.125 22.7188C69.3542 23.2604 67.7083 23.7083 66.1875 24.0625C64.6667 24.3958 63.2604 24.6562 61.9688 24.8438C60.6979 25.0104 59.5521 25.125 58.5312 25.1875C59.4062 25.5833 60.2188 26.1042 60.9688 26.75C61.7188 27.3958 62.3333 28.1979 62.8125 29.1562C63.3333 30.2396 63.7812 31.4479 64.1562 32.7812C64.5521 34.0938 64.9479 35.3333 65.3438 36.5C65.7396 37.6667 66.1875 38.6458 66.6875 39.4375C67.2083 40.2292 67.8646 40.625 68.6562 40.625C70.3854 40.625 72.4688 40.1146 74.9062 39.0938C77.3646 38.0729 79.9896 36.4896 82.7812 34.3438C82.9688 34.2188 83.1667 34.1562 83.375 34.1562C83.625 34.1562 83.75 34.2396 83.75 34.4062C83.75 34.5729 83.6875 34.6875 83.5625 34.75ZM78.3125 4.96875C77.0625 5.03125 75.6146 5.15625 73.9688 5.34375C72.3229 5.53125 70.6146 5.77083 68.8438 6.0625C68.2396 6.79167 67.4792 7.75 66.5625 8.9375C65.6667 10.1042 64.7083 11.3646 63.6875 12.7188C62.6875 14.0521 61.6667 15.3958 60.625 16.75C59.6042 18.1042 58.6875 19.3229 57.875 20.4062C61.1667 19.8646 64.2188 19.1979 67.0312 18.4062C69.8646 17.6146 72.5104 16.5938 74.9688 15.3438C76.1146 14.7604 77.2812 14.1667 78.4688 13.5625C79.6562 12.9583 80.7292 12.3229 81.6875 11.6562C82.6667 10.9896 83.4583 10.2812 84.0625 9.53125C84.6667 8.76042 84.9688 7.92708 84.9688 7.03125C84.9688 6.61458 84.8854 6.20833 84.7188 5.8125C84.3229 5.45833 83.8021 5.21875 83.1562 5.09375C82.5312 4.96875 81.7708 4.90625 80.875 4.90625C80.4792 4.90625 80.0729 4.90625 79.6562 4.90625C79.2396 4.90625 78.7917 4.92708 78.3125 4.96875ZM91.75 35.875C91.75 36.6875 91.8958 37.4479 92.1875 38.1562C92.5 38.8438 92.9271 39.4375 93.4688 39.9375C94.0104 40.4375 94.6667 40.8333 95.4375 41.125C96.2292 41.3958 97.0938 41.5312 98.0312 41.5312C99.3854 41.5312 100.719 41.3333 102.031 40.9375C103.344 40.5208 104.74 39.9479 106.219 39.2188C106.927 38.8646 107.719 38.3542 108.594 37.6875C109.469 37 110.396 36.2292 111.375 35.375C112.354 34.5 113.365 33.5729 114.406 32.5938C115.448 31.6146 116.469 30.6458 117.469 29.6875C117.948 29.2292 118.292 28.8646 118.5 28.5938C118.729 28.3021 118.99 28.0208 119.281 27.75C119.323 27.7083 119.385 27.6875 119.469 27.6875C119.573 27.6875 119.646 27.7292 119.688 27.8125C119.729 27.8958 119.802 27.9375 119.906 27.9375C120.031 27.9375 120.135 27.8854 120.219 27.7812C120.302 27.6771 120.396 27.625 120.5 27.625C120.625 27.625 120.688 27.7292 120.688 27.9375C120.688 28.0833 120.677 28.1979 120.656 28.2812C120.635 28.3438 120.625 28.4271 120.625 28.5312C120.625 28.4896 120.646 28.4479 120.688 28.4062C120.729 28.3229 120.792 28.2812 120.875 28.2812C121 28.2812 121.062 28.4479 121.062 28.7812V29.0938C121.042 29.3854 120.938 29.8438 120.75 30.4688C120.562 31.0729 120.271 31.7917 119.875 32.625C119.479 33.4375 118.969 34.3333 118.344 35.3125C117.74 36.2917 117 37.2917 116.125 38.3125C115.25 39.3333 114.24 40.3333 113.094 41.3125C111.948 42.2917 110.656 43.1979 109.219 44.0312C107.49 45.0312 105.76 45.7604 104.031 46.2188C102.323 46.6771 100.688 46.9062 99.125 46.9062C97.2917 46.9062 95.6562 46.6146 94.2188 46.0312C92.7812 45.4688 91.6354 44.6667 90.7812 43.625C89.5938 42.6042 88.7292 41.3333 88.1875 39.8125C87.6667 38.2708 87.4062 36.6042 87.4062 34.8125C87.4062 33.4167 87.5521 31.9792 87.8438 30.5C88.1562 29.0208 88.5833 27.5729 89.125 26.1562C89.6667 24.7188 90.3125 23.3438 91.0625 22.0312C91.8333 20.7188 92.6875 19.5104 93.625 18.4062C95.6667 16.0104 97.6979 13.9583 99.7188 12.25C101.74 10.5208 103.708 9.0625 105.625 7.875C107.542 6.6875 109.375 5.72917 111.125 5C112.896 4.27083 114.542 3.71875 116.062 3.34375C117.583 2.94792 118.948 2.6875 120.156 2.5625C121.385 2.41667 122.417 2.34375 123.25 2.34375C123.667 2.34375 124.031 2.34375 124.344 2.34375C124.656 2.34375 124.906 2.36458 125.094 2.40625C125.969 2.51042 126.646 2.75 127.125 3.125C127.625 3.47917 127.99 3.92708 128.219 4.46875C128.74 4.94792 129.208 5.52083 129.625 6.1875C130.062 6.85417 130.281 7.66667 130.281 8.625C130.281 9.60417 130.083 10.5521 129.688 11.4688C129.292 12.3646 128.771 13.1979 128.125 13.9688C127.5 14.7396 126.802 15.4271 126.031 16.0312C125.26 16.6146 124.5 17.0729 123.75 17.4062C123.667 17.4479 123.542 17.4688 123.375 17.4688C123.208 17.4688 123.073 17.3958 122.969 17.25C122.865 17.1042 122.781 16.9167 122.719 16.6875C122.677 16.5417 122.646 16.4375 122.625 16.375C122.604 16.3125 122.583 16.2604 122.562 16.2188C122.542 16.1771 122.51 16.1354 122.469 16.0938C122.448 16.0521 122.406 15.9688 122.344 15.8438C122.281 15.7812 122.25 15.6979 122.25 15.5938C122.271 15.4688 122.281 15.3854 122.281 15.3438C122.281 15.1771 122.177 15.0104 121.969 14.8438C121.615 14.5938 121.438 14.3125 121.438 14C121.438 13.875 121.479 13.7396 121.562 13.5938C121.667 13.4271 121.802 13.2604 121.969 13.0938C122.115 12.9479 122.344 12.7396 122.656 12.4688C122.99 12.1979 123.344 11.8958 123.719 11.5625C124.115 11.2083 124.521 10.8229 124.938 10.4062C125.375 9.98958 125.76 9.55208 126.094 9.09375C126.448 8.61458 126.729 8.125 126.938 7.625C127.167 7.10417 127.281 6.58333 127.281 6.0625C127.281 6 127.281 5.92708 127.281 5.84375C127.281 5.76042 127.26 5.6875 127.219 5.625C126.823 5.33333 126.448 5.16667 126.094 5.125C125.74 5.0625 125.365 5.03125 124.969 5.03125C123.948 5.03125 122.729 5.21875 121.312 5.59375C119.896 5.96875 118.375 6.51042 116.75 7.21875C115.125 7.92708 113.427 8.80208 111.656 9.84375C109.906 10.8854 108.177 12.0833 106.469 13.4375C104.76 14.7708 103.104 16.25 101.5 17.875C99.9167 19.4792 98.4792 21.2188 97.1875 23.0938C96.1875 24.5729 95.3333 25.9271 94.625 27.1562C93.9375 28.3646 93.375 29.4896 92.9375 30.5312C92.5208 31.5521 92.2188 32.5104 92.0312 33.4062C91.8438 34.2812 91.75 35.1042 91.75 35.875ZM148.344 29.5C147.677 30.5 146.948 31.5 146.156 32.5C145.365 33.5 144.594 34.4375 143.844 35.3125C143.115 36.1875 142.448 36.9583 141.844 37.625C141.24 38.2917 140.781 38.7812 140.469 39.0938C139.948 39.6354 139.385 40.2292 138.781 40.875C138.177 41.5208 137.594 42.1458 137.031 42.75C136.49 43.3542 135.99 43.9167 135.531 44.4375C135.073 44.9375 134.719 45.3125 134.469 45.5625C134.135 45.9167 133.896 46.1458 133.75 46.25C133.625 46.375 133.5 46.4375 133.375 46.4375C133.333 46.4375 133.292 46.4271 133.25 46.4062C133.208 46.3854 133.167 46.375 133.125 46.375C133 46.375 132.938 46.3125 132.938 46.1875C132.938 45.9792 132.979 45.8333 133.062 45.75C132.875 45.875 132.719 45.9792 132.594 46.0625C132.49 46.1458 132.302 46.1875 132.031 46.1875C131.74 46.1875 131.521 46.0312 131.375 45.7188C131.25 45.4062 131.167 45.1146 131.125 44.8438C131.083 44.7604 131.062 44.6562 131.062 44.5312C131.062 44.2396 131.167 43.8958 131.375 43.5C131.604 43.0833 132.042 42.4479 132.688 41.5938C131.75 42.2604 130.771 42.9167 129.75 43.5625C128.729 44.2083 127.74 44.8021 126.781 45.3438C125.823 45.8646 124.938 46.2812 124.125 46.5938C123.312 46.9271 122.625 47.0938 122.062 47.0938C121.583 47.0729 121.156 46.9375 120.781 46.6875C120.406 46.4583 120.083 46.1667 119.812 45.8125C119.542 45.4375 119.333 45.0208 119.188 44.5625C119.042 44.1042 118.969 43.625 118.969 43.125C119.01 41.875 119.312 40.7292 119.875 39.6875C120.417 38.625 121.125 37.6562 122 36.7812C122.854 35.9062 123.823 35.1354 124.906 34.4688C125.99 33.7812 127.094 33.1875 128.219 32.6875C129.365 32.1875 130.479 31.7812 131.562 31.4688C132.646 31.1354 133.615 30.8854 134.469 30.7188C135.469 30.5104 136.354 30.375 137.125 30.3125C137.896 30.2292 138.562 30.1875 139.125 30.1875C140.438 30.1875 141.292 30.4062 141.688 30.8438C142.042 30.4271 142.385 30.0417 142.719 29.6875C143.073 29.3125 143.396 28.9479 143.688 28.5938C144.562 27.5938 145.177 26.6875 145.531 25.875C145.885 25.0417 146.062 24.3229 146.062 23.7188C146.062 23.4271 146.031 23.1562 145.969 22.9062C145.906 22.6562 145.802 22.4375 145.656 22.25C145.406 21.9583 145.135 21.7188 144.844 21.5312C144.573 21.3229 144.292 21.2188 144 21.2188C143.542 21.2188 142.802 21.3021 141.781 21.4688C140.76 21.6354 139.583 21.9896 138.25 22.5312C136.917 23.0729 135.5 23.8542 134 24.875C132.5 25.875 131.031 27.2188 129.594 28.9062C129.385 29.1146 129.24 29.2188 129.156 29.2188C129.052 29.2188 128.938 29.1771 128.812 29.0938C128.708 28.9896 128.583 28.8854 128.438 28.7812C128.271 28.7188 128.135 28.6562 128.031 28.5938C127.927 28.5104 127.875 28.4062 127.875 28.2812C127.875 28.1146 127.938 27.9375 128.062 27.75C128.229 27.4375 128.552 27 129.031 26.4375C129.51 25.8542 130.115 25.2292 130.844 24.5625C131.573 23.8958 132.417 23.2188 133.375 22.5312C134.333 21.8438 135.375 21.2188 136.5 20.6562C137.625 20.0938 138.823 19.6354 140.094 19.2812C141.365 18.9271 142.688 18.75 144.062 18.75C144.854 18.75 145.635 18.8542 146.406 19.0625C147.177 19.25 147.802 19.5729 148.281 20.0312C148.948 20.3854 149.438 20.9062 149.75 21.5938C150.062 22.2604 150.219 22.9896 150.219 23.7812C150.219 24.7604 150.042 25.7604 149.688 26.7812C149.333 27.7812 148.885 28.6875 148.344 29.5ZM130.812 35.3125C129.5 35.9583 128.354 36.625 127.375 37.3125C126.417 37.9792 125.615 38.6354 124.969 39.2812C124.323 39.9062 123.833 40.5104 123.5 41.0938C123.146 41.6562 122.938 42.1562 122.875 42.5938C122.917 42.6562 123.031 42.6875 123.219 42.6875C123.615 42.6875 124.219 42.5417 125.031 42.25C125.823 41.9375 126.719 41.5208 127.719 41C128.74 40.4792 129.823 39.8854 130.969 39.2188C132.115 38.5521 133.229 37.8542 134.312 37.125C135.417 36.3958 136.448 35.6667 137.406 34.9375C138.385 34.2083 139.198 33.5208 139.844 32.875C138.594 32.875 137.25 33.0521 135.812 33.4062C134.375 33.7604 132.708 34.3958 130.812 35.3125ZM166.781 18.2812C166.781 18.4479 166.812 18.6146 166.875 18.7812C166.958 18.9479 167 19.1458 167 19.375C167 19.6667 166.865 20.0104 166.594 20.4062C166.469 20.5729 166.25 20.8542 165.938 21.25C165.625 21.625 165.26 22.0833 164.844 22.625C164.427 23.1458 163.969 23.7396 163.469 24.4062C162.99 25.0521 162.5 25.7188 162 26.4062C162.917 25.6354 163.938 24.7917 165.062 23.875C166.188 22.9583 167.323 22.1042 168.469 21.3125C169.635 20.5208 170.76 19.8646 171.844 19.3438C172.948 18.8021 173.927 18.5312 174.781 18.5312C174.99 18.5312 175.156 18.5521 175.281 18.5938C175.427 18.6146 175.583 18.6458 175.75 18.6875L176.406 19.0625C176.823 19.375 177.135 19.8125 177.344 20.375C177.573 20.9375 177.688 21.4583 177.688 21.9375C177.688 22.4375 177.542 23.0104 177.25 23.6562C176.958 24.3021 176.604 24.9479 176.188 25.5938C175.771 26.2396 175.333 26.8438 174.875 27.4062C174.417 27.9479 174.031 28.3646 173.719 28.6562C173.406 28.9479 173.083 29.2396 172.75 29.5312C172.438 29.8229 172.125 30.0938 171.812 30.3438C171.521 30.5729 171.24 30.7708 170.969 30.9375C170.719 31.0833 170.5 31.1562 170.312 31.1562C170.083 31.1562 169.906 31.1354 169.781 31.0938C169.677 31.0312 169.604 30.9688 169.562 30.9062C169.5 30.8229 169.469 30.7292 169.469 30.625C169.469 30.5208 169.427 30.4792 169.344 30.5C169.281 30.5 169.219 30.5 169.156 30.5C169.094 30.5 169.031 30.5 168.969 30.5C168.906 30.4792 168.844 30.4375 168.781 30.375C168.552 30.2708 168.396 30.1042 168.312 29.875C168.229 29.6458 168.167 29.3229 168.125 28.9062C168.125 28.3854 168.156 28.0208 168.219 27.8125C168.302 27.6042 168.427 27.4375 168.594 27.3125C168.781 27.1667 168.927 27.0521 169.031 26.9688C169.156 26.8646 169.281 26.7604 169.406 26.6562C169.531 26.5312 169.667 26.4062 169.812 26.2812C169.979 26.1354 170.188 25.9479 170.438 25.7188C171.375 24.9271 172.083 24.1771 172.562 23.4688C173.062 22.7604 173.333 22.1667 173.375 21.6875C173 21.7292 172.458 21.9271 171.75 22.2812C171.062 22.6354 170.167 23.2292 169.062 24.0625C167.979 24.875 166.667 25.9688 165.125 27.3438C163.604 28.7188 161.812 30.4375 159.75 32.5C159.188 33.0625 158.458 33.8542 157.562 34.875C156.667 35.875 155.729 36.9479 154.75 38.0938C153.792 39.2396 152.854 40.3646 151.938 41.4688C151.021 42.5521 150.26 43.4688 149.656 44.2188L147.906 46.5625C147.781 46.7083 147.667 46.8229 147.562 46.9062C147.458 46.9896 147.323 47.0312 147.156 47.0312C146.927 47.0312 146.667 46.8958 146.375 46.625C146.208 46.4792 146.115 46.3021 146.094 46.0938C146.052 45.9062 145.938 45.6146 145.75 45.2188C145.542 44.8646 145.406 44.5625 145.344 44.3125C145.26 44.0417 145.198 43.7917 145.156 43.5625C145.156 43.5 145.167 43.4375 145.188 43.375C145.208 43.3125 145.24 43.2292 145.281 43.125C145.406 42.8542 145.75 42.2188 146.312 41.2188C146.854 40.1979 147.625 38.9792 148.625 37.5625C148.875 37.2292 149.271 36.6979 149.812 35.9688C150.354 35.2188 150.99 34.3646 151.719 33.4062C152.448 32.4479 153.25 31.4062 154.125 30.2812C155 29.1354 155.885 28 156.781 26.875C157.677 25.7292 158.562 24.6146 159.438 23.5312C160.333 22.4479 161.156 21.4792 161.906 20.625C162.677 19.75 163.354 19.0208 163.938 18.4375C164.521 17.8333 164.958 17.4583 165.25 17.3125L165.656 17.1875C165.76 17.1875 165.802 17.2292 165.781 17.3125C165.781 17.3958 165.844 17.4688 165.969 17.5312C166.198 17.5938 166.375 17.6771 166.5 17.7812C166.646 17.8854 166.74 18.0521 166.781 18.2812ZM176.062 40.0625C175.979 40.1042 175.833 40.1667 175.625 40.25C175.396 40.3125 175.167 40.4167 174.938 40.5625C174.708 40.7083 174.5 40.8854 174.312 41.0938C174.104 41.3021 173.979 41.5521 173.938 41.8438C174.021 41.9479 174.135 42.0104 174.281 42.0312C174.406 42.0312 174.531 42.0312 174.656 42.0312C174.865 42.0312 175 42.0208 175.062 42C175.125 42 175.177 41.9896 175.219 41.9688C176.031 41.8021 176.906 41.5938 177.844 41.3438C178.781 41.0729 179.729 40.7708 180.688 40.4375C181.667 40.0833 182.625 39.7083 183.562 39.3125C184.5 38.9167 185.365 38.4896 186.156 38.0312C186.969 37.5729 187.677 37.1042 188.281 36.625C188.906 36.1458 189.375 35.6458 189.688 35.125C189.479 34.875 189.062 34.6667 188.438 34.5C187.833 34.3333 187.104 34.1771 186.25 34.0312C185.417 33.8854 184.51 33.75 183.531 33.625C182.573 33.4792 181.646 33.3125 180.75 33.125C180.25 33.0208 179.833 32.8854 179.5 32.7188C179.188 32.5312 178.927 32.3333 178.719 32.125C178.51 31.8958 178.333 31.6562 178.188 31.4062C178.042 31.1562 177.906 30.8958 177.781 30.625C177.594 30.2083 177.448 29.8229 177.344 29.4688C177.26 29.1146 177.219 28.7188 177.219 28.2812C177.219 27.8854 177.25 27.5833 177.312 27.375C177.375 27.1458 177.49 26.9375 177.656 26.75C178.281 25.9583 179.115 25.2396 180.156 24.5938C181.219 23.9479 182.375 23.375 183.625 22.875C184.875 22.375 186.177 21.9479 187.531 21.5938C188.885 21.2396 190.167 20.9479 191.375 20.7188C192.583 20.4688 193.656 20.2917 194.594 20.1875C195.552 20.0833 196.271 20.0312 196.75 20.0312C197.125 20.0312 197.427 20.0729 197.656 20.1562C197.885 20.2396 198.115 20.2812 198.344 20.2812C198.698 20.2812 198.99 20.4167 199.219 20.6875C199.448 20.9375 199.562 21.2083 199.562 21.5C199.562 21.9375 199.302 22.4375 198.781 23C198.281 23.5417 197.469 24.1042 196.344 24.6875C195.26 25.2292 194.427 25.6042 193.844 25.8125C193.26 26 192.854 26.0938 192.625 26.0938C192.458 26.0938 192.375 26.0521 192.375 25.9688C192.333 25.9062 192.312 25.8333 192.312 25.75C192.312 25.6667 192.312 25.5729 192.312 25.4688C192.312 24.9479 192.417 24.4271 192.625 23.9062C192.292 23.9062 191.906 23.9375 191.469 24C191.031 24.0625 190.51 24.1771 189.906 24.3438C189.323 24.5104 188.635 24.7396 187.844 25.0312C187.073 25.3021 186.177 25.6562 185.156 26.0938C183.656 26.6979 182.521 27.2083 181.75 27.625C181 28.0417 180.49 28.4271 180.219 28.7812C180.74 29.0729 181.427 29.3021 182.281 29.4688C183.135 29.6354 184.042 29.7917 185 29.9375C185.979 30.0833 186.948 30.2604 187.906 30.4688C188.885 30.6562 189.74 30.9271 190.469 31.2812C191.51 31.8229 192.229 32.4583 192.625 33.1875C192.833 33.5208 192.979 33.9062 193.062 34.3438C193.167 34.7812 193.219 35.2083 193.219 35.625C193.219 36.2083 193.156 36.6562 193.031 36.9688C192.51 38.1771 191.781 39.25 190.844 40.1875C189.906 41.125 188.854 41.9375 187.688 42.625C186.542 43.3125 185.323 43.8958 184.031 44.375C182.76 44.8542 181.51 45.25 180.281 45.5625C179.052 45.875 177.906 46.1146 176.844 46.2812C175.781 46.4479 174.885 46.5625 174.156 46.625C173.948 46.6667 173.75 46.6875 173.562 46.6875C173.354 46.7083 173.167 46.7188 173 46.7188C172.458 46.7188 171.948 46.625 171.469 46.4375C170.99 46.2708 170.573 46.0312 170.219 45.7188C169.865 45.3854 169.583 44.9896 169.375 44.5312C169.146 44.0521 169.031 43.5208 169.031 42.9375C169.031 42.1875 169.198 41.5417 169.531 41C169.844 40.4583 170.24 40.0104 170.719 39.6562C171.198 39.2812 171.719 38.9792 172.281 38.75C172.844 38.5208 173.375 38.3333 173.875 38.1875C174.271 38.0833 174.594 38.0104 174.844 37.9688C175.073 37.9062 175.292 37.875 175.5 37.875C175.667 37.875 175.792 37.9062 175.875 37.9688C175.938 38.0104 176 38.0833 176.062 38.1875C176.104 38.3542 176.146 38.5521 176.188 38.7812C176.229 39.0104 176.25 39.2396 176.25 39.4688C176.25 39.5938 176.229 39.7188 176.188 39.8438C176.167 39.9479 176.125 40.0208 176.062 40.0625Z" fill="#F83A3A"/>
</svg>
