<svg width="963" height="167" viewBox="0 0 963 167" fill="none" xmlns="http://www.w3.org/2000/svg">
<g filter="url(#filter0_d_102_2)">
<path d="M415.375 112.094C415.688 112.135 415.906 112.25 416.031 112.438C416.177 112.625 416.25 112.854 416.25 113.125C416.25 113.479 416.146 113.854 415.938 114.25C415.729 114.646 415.385 115.083 414.906 115.562C413.052 117.354 411.396 118.969 409.938 120.406C408.5 121.823 407.188 123.146 406 124.375C404.812 125.583 403.729 126.729 402.75 127.812C401.771 128.896 400.823 129.979 399.906 131.062C399.01 132.125 398.104 133.229 397.188 134.375C396.271 135.521 395.292 136.76 394.25 138.094C395.146 138.01 396.104 137.938 397.125 137.875C398.146 137.792 399.188 137.75 400.25 137.75C401.104 137.75 401.917 137.781 402.688 137.844C403.479 137.906 404.208 138.01 404.875 138.156C405.438 136.615 406.146 134.896 407 133C407.854 131.083 408.76 129.146 409.719 127.188C410.698 125.229 411.667 123.323 412.625 121.469C413.604 119.594 414.479 117.927 415.25 116.469C416.042 114.99 416.688 113.781 417.188 112.844C417.688 111.906 417.958 111.396 418 111.312C418 111.271 418.062 111.25 418.188 111.25C418.25 111.25 418.333 111.26 418.438 111.281C418.542 111.302 418.646 111.312 418.75 111.312C418.792 111.312 418.823 111.302 418.844 111.281C418.865 111.26 418.896 111.25 418.938 111.25H419.094C419.219 111.25 419.333 111.302 419.438 111.406C419.562 111.49 419.677 111.552 419.781 111.594C420.135 111.781 420.438 111.969 420.688 112.156C420.938 112.323 421.062 112.604 421.062 113C421.062 113.062 421.062 113.135 421.062 113.219C421.062 113.302 421.042 113.396 421 113.5C420.958 113.688 420.76 114.219 420.406 115.094C420.073 115.969 419.635 117.062 419.094 118.375C418.552 119.688 417.927 121.167 417.219 122.812C416.531 124.458 415.802 126.146 415.031 127.875C414.281 129.604 413.521 131.323 412.75 133.031C412 134.719 411.292 136.271 410.625 137.688C410.188 138.604 409.292 140.573 407.938 143.594C406.604 146.594 404.771 150.688 402.438 155.875C402.375 156.042 402.292 156.146 402.188 156.188C402.083 156.229 401.979 156.25 401.875 156.25C401.771 156.25 401.667 156.24 401.562 156.219C401.479 156.198 401.406 156.188 401.344 156.188C401.24 156.188 401.156 156.25 401.094 156.375C400.948 156.646 400.74 156.781 400.469 156.781C400.219 156.781 400.062 156.708 400 156.562C399.896 156.396 399.719 156.24 399.469 156.094C399.24 155.948 399.073 155.729 398.969 155.438C398.927 155.312 398.875 155.198 398.812 155.094C398.75 154.99 398.688 154.875 398.625 154.75C398.583 154.604 398.542 154.448 398.5 154.281C398.479 154.094 398.469 153.854 398.469 153.562C398.469 153.188 398.469 152.906 398.469 152.719C398.49 152.531 398.5 152.385 398.5 152.281C398.521 152.156 398.542 152.073 398.562 152.031C398.583 151.969 398.615 151.885 398.656 151.781C399.531 149.573 400.312 147.698 401 146.156C401.708 144.615 402.312 143.312 402.812 142.25C401.958 142.333 400.99 142.417 399.906 142.5C398.844 142.562 397.75 142.625 396.625 142.688C395.5 142.75 394.385 142.823 393.281 142.906C392.198 142.969 391.219 143.042 390.344 143.125C389.969 143.583 389.479 144.167 388.875 144.875C388.292 145.583 387.656 146.333 386.969 147.125C386.302 147.896 385.625 148.677 384.938 149.469C384.25 150.26 383.625 150.99 383.062 151.656C382.5 152.302 382.031 152.844 381.656 153.281C381.281 153.719 381.083 153.969 381.062 154.031C380.875 154.302 380.635 154.615 380.344 154.969C380.031 155.323 379.729 155.667 379.438 156C379.125 156.312 378.844 156.583 378.594 156.812C378.323 157.042 378.125 157.156 378 157.156C377.833 157.156 377.719 157.021 377.656 156.75C377.594 156.5 377.51 156.25 377.406 156C377.24 155.646 377.083 155.312 376.938 155C376.771 154.667 376.635 154.344 376.531 154.031C376.531 153.99 376.521 153.948 376.5 153.906C376.479 153.865 376.469 153.812 376.469 153.75C376.469 153.542 376.51 153.292 376.594 153C376.677 152.688 376.781 152.375 376.906 152.062C377.01 151.75 377.125 151.469 377.25 151.219C377.375 150.948 377.49 150.75 377.594 150.625C378.469 149.438 379.333 148.281 380.188 147.156C381.021 146.031 381.885 144.906 382.781 143.781C382.281 143.781 381.917 143.771 381.688 143.75C381.479 143.708 381.354 143.635 381.312 143.531C381.271 143.385 381.198 143.292 381.094 143.25C381.01 143.208 380.927 143.188 380.844 143.188C380.74 143.167 380.656 143.135 380.594 143.094C380.531 143.052 380.5 142.958 380.5 142.812C380.5 142.688 380.51 142.531 380.531 142.344C380.531 142.135 380.552 141.927 380.594 141.719C380.615 141.51 380.656 141.323 380.719 141.156C380.76 140.99 380.812 140.885 380.875 140.844C381.062 140.635 381.406 140.438 381.906 140.25C382.406 140.042 383.042 139.792 383.812 139.5C384.417 139.292 385.417 139.094 386.812 138.906C389.062 136.26 391.292 133.76 393.5 131.406C395.708 129.052 397.823 126.896 399.844 124.938C401.865 122.958 403.74 121.188 405.469 119.625C407.219 118.062 408.75 116.74 410.062 115.656C411.396 114.552 412.469 113.708 413.281 113.125C414.115 112.521 414.615 112.198 414.781 112.156C414.885 112.156 414.979 112.146 415.062 112.125C415.167 112.104 415.271 112.094 415.375 112.094ZM459.562 144.75C459.458 144.812 459.375 144.865 459.312 144.906C459.271 144.948 459.229 145 459.188 145.062C459.167 145.125 459.146 145.219 459.125 145.344C459.125 145.448 459.115 145.604 459.094 145.812C459.073 146.021 459.042 146.198 459 146.344C458.979 146.49 458.927 146.635 458.844 146.781C458.781 146.927 458.677 147.073 458.531 147.219C458.385 147.365 458.198 147.542 457.969 147.75C457.823 147.875 457.552 148.188 457.156 148.688C456.76 149.167 456.25 149.74 455.625 150.406C455 151.073 454.26 151.781 453.406 152.531C452.552 153.26 451.594 153.938 450.531 154.562C449.469 155.188 448.302 155.698 447.031 156.094C445.781 156.51 444.427 156.719 442.969 156.719C441.823 156.719 440.844 156.438 440.031 155.875C439.24 155.292 438.562 154.531 438 153.594C437.458 152.656 437.01 151.583 436.656 150.375C436.323 149.146 436.042 147.885 435.812 146.594C435.583 145.281 435.385 143.99 435.219 142.719C435.073 141.448 434.906 140.281 434.719 139.219C434.552 138.552 434.323 138.01 434.031 137.594C433.76 137.177 433.438 136.854 433.062 136.625C432.688 136.396 432.281 136.24 431.844 136.156C431.427 136.073 431 136.031 430.562 136.031C430.396 136.031 430.25 136.031 430.125 136.031C430 136.031 429.865 136.052 429.719 136.094C428.99 137.115 428.167 138.281 427.25 139.594C426.354 140.906 425.438 142.25 424.5 143.625C423.562 145 422.646 146.365 421.75 147.719C420.854 149.052 420.042 150.271 419.312 151.375C418.604 152.479 418.01 153.406 417.531 154.156C417.052 154.906 416.771 155.375 416.688 155.562C416.417 156.146 416.198 156.562 416.031 156.812C415.865 157.083 415.656 157.219 415.406 157.219C415.344 157.219 415.281 157.219 415.219 157.219C415.135 157.219 415.062 157.198 415 157.156C414.583 157.031 414.188 156.833 413.812 156.562C413.438 156.292 413.135 155.917 412.906 155.438C412.802 155.208 412.729 155.062 412.688 155C412.625 154.938 412.583 154.865 412.562 154.781C412.521 154.698 412.49 154.573 412.469 154.406C412.427 154.24 412.375 153.938 412.312 153.5C412.271 153.396 412.25 153.292 412.25 153.188C412.25 153.083 412.25 152.979 412.25 152.875C412.25 152.604 412.292 152.302 412.375 151.969C412.438 151.635 412.573 151.24 412.781 150.781C412.99 150.323 413.281 149.781 413.656 149.156C414.031 148.51 414.521 147.74 415.125 146.844C415.729 145.948 416.448 144.917 417.281 143.75C418.135 142.583 419.146 141.229 420.312 139.688C421.396 138.25 422.552 136.781 423.781 135.281C425.01 133.781 426.25 132.302 427.5 130.844C428.771 129.385 430.031 127.969 431.281 126.594C432.531 125.198 433.708 123.896 434.812 122.688C435.917 121.479 436.917 120.385 437.812 119.406C438.729 118.427 439.49 117.615 440.094 116.969C438.406 117.323 436.844 117.688 435.406 118.062C433.969 118.438 432.781 118.812 431.844 119.188C431.719 119.25 431.604 119.302 431.5 119.344C431.396 119.385 431.292 119.406 431.188 119.406C431.021 119.406 430.906 119.344 430.844 119.219C430.781 119.094 430.688 119 430.562 118.938C430.479 118.896 430.438 118.833 430.438 118.75C430.438 118.667 430.562 118.5 430.812 118.25C430.896 118.146 430.948 118.073 430.969 118.031C430.99 117.99 431 117.948 431 117.906C431.021 117.865 431.062 117.812 431.125 117.75C431.208 117.688 431.344 117.594 431.531 117.469C431.656 117.344 431.719 117.24 431.719 117.156C431.719 117.052 431.646 116.979 431.5 116.938C431.354 116.896 431.281 116.844 431.281 116.781C431.406 116.656 431.5 116.573 431.562 116.531C431.625 116.469 431.677 116.427 431.719 116.406C431.76 116.385 431.812 116.365 431.875 116.344C431.938 116.323 432.031 116.292 432.156 116.25C432.385 116.125 432.875 115.906 433.625 115.594C434.375 115.26 435.302 114.896 436.406 114.5C437.531 114.083 438.802 113.656 440.219 113.219C441.656 112.781 443.167 112.385 444.75 112.031C446.354 111.656 448.01 111.354 449.719 111.125C451.427 110.875 453.125 110.75 454.812 110.75H455.406C456.406 110.792 457.292 110.906 458.062 111.094C458.833 111.281 459.5 111.531 460.062 111.844C460.625 112.156 461.094 112.51 461.469 112.906C461.844 113.302 462.146 113.719 462.375 114.156C463.083 114.802 463.604 115.542 463.938 116.375C464.292 117.188 464.469 118.042 464.469 118.938C464.469 119.583 464.344 120.365 464.094 121.281C463.865 122.198 463.344 123.188 462.531 124.25C461.719 125.292 460.542 126.375 459 127.5C457.458 128.604 455.385 129.677 452.781 130.719C450.781 131.51 448.896 132.177 447.125 132.719C445.354 133.26 443.708 133.708 442.188 134.062C440.667 134.396 439.26 134.656 437.969 134.844C436.698 135.01 435.552 135.125 434.531 135.188C435.406 135.583 436.219 136.104 436.969 136.75C437.719 137.396 438.333 138.198 438.812 139.156C439.333 140.24 439.781 141.448 440.156 142.781C440.552 144.094 440.948 145.333 441.344 146.5C441.74 147.667 442.188 148.646 442.688 149.438C443.208 150.229 443.865 150.625 444.656 150.625C446.385 150.625 448.469 150.115 450.906 149.094C453.365 148.073 455.99 146.49 458.781 144.344C458.969 144.219 459.167 144.156 459.375 144.156C459.625 144.156 459.75 144.24 459.75 144.406C459.75 144.573 459.688 144.688 459.562 144.75ZM454.312 114.969C453.062 115.031 451.615 115.156 449.969 115.344C448.323 115.531 446.615 115.771 444.844 116.062C444.24 116.792 443.479 117.75 442.562 118.938C441.667 120.104 440.708 121.365 439.688 122.719C438.688 124.052 437.667 125.396 436.625 126.75C435.604 128.104 434.688 129.323 433.875 130.406C437.167 129.865 440.219 129.198 443.031 128.406C445.865 127.615 448.51 126.594 450.969 125.344C452.115 124.76 453.281 124.167 454.469 123.562C455.656 122.958 456.729 122.323 457.688 121.656C458.667 120.99 459.458 120.281 460.062 119.531C460.667 118.76 460.969 117.927 460.969 117.031C460.969 116.615 460.885 116.208 460.719 115.812C460.323 115.458 459.802 115.219 459.156 115.094C458.531 114.969 457.771 114.906 456.875 114.906C456.479 114.906 456.073 114.906 455.656 114.906C455.24 114.906 454.792 114.927 454.312 114.969ZM467.75 145.875C467.75 146.688 467.896 147.448 468.188 148.156C468.5 148.844 468.927 149.438 469.469 149.938C470.01 150.438 470.667 150.833 471.438 151.125C472.229 151.396 473.094 151.531 474.031 151.531C475.385 151.531 476.719 151.333 478.031 150.938C479.344 150.521 480.74 149.948 482.219 149.219C482.927 148.865 483.719 148.354 484.594 147.688C485.469 147 486.396 146.229 487.375 145.375C488.354 144.5 489.365 143.573 490.406 142.594C491.448 141.615 492.469 140.646 493.469 139.688C493.948 139.229 494.292 138.865 494.5 138.594C494.729 138.302 494.99 138.021 495.281 137.75C495.323 137.708 495.385 137.688 495.469 137.688C495.573 137.688 495.646 137.729 495.688 137.812C495.729 137.896 495.802 137.938 495.906 137.938C496.031 137.938 496.135 137.885 496.219 137.781C496.302 137.677 496.396 137.625 496.5 137.625C496.625 137.625 496.688 137.729 496.688 137.938C496.688 138.083 496.677 138.198 496.656 138.281C496.635 138.344 496.625 138.427 496.625 138.531C496.625 138.49 496.646 138.448 496.688 138.406C496.729 138.323 496.792 138.281 496.875 138.281C497 138.281 497.062 138.448 497.062 138.781V139.094C497.042 139.385 496.938 139.844 496.75 140.469C496.562 141.073 496.271 141.792 495.875 142.625C495.479 143.438 494.969 144.333 494.344 145.312C493.74 146.292 493 147.292 492.125 148.312C491.25 149.333 490.24 150.333 489.094 151.312C487.948 152.292 486.656 153.198 485.219 154.031C483.49 155.031 481.76 155.76 480.031 156.219C478.323 156.677 476.688 156.906 475.125 156.906C473.292 156.906 471.656 156.615 470.219 156.031C468.781 155.469 467.635 154.667 466.781 153.625C465.594 152.604 464.729 151.333 464.188 149.812C463.667 148.271 463.406 146.604 463.406 144.812C463.406 143.417 463.552 141.979 463.844 140.5C464.156 139.021 464.583 137.573 465.125 136.156C465.667 134.719 466.312 133.344 467.062 132.031C467.833 130.719 468.688 129.51 469.625 128.406C471.667 126.01 473.698 123.958 475.719 122.25C477.74 120.521 479.708 119.062 481.625 117.875C483.542 116.688 485.375 115.729 487.125 115C488.896 114.271 490.542 113.719 492.062 113.344C493.583 112.948 494.948 112.688 496.156 112.562C497.385 112.417 498.417 112.344 499.25 112.344C499.667 112.344 500.031 112.344 500.344 112.344C500.656 112.344 500.906 112.365 501.094 112.406C501.969 112.51 502.646 112.75 503.125 113.125C503.625 113.479 503.99 113.927 504.219 114.469C504.74 114.948 505.208 115.521 505.625 116.188C506.062 116.854 506.281 117.667 506.281 118.625C506.281 119.604 506.083 120.552 505.688 121.469C505.292 122.365 504.771 123.198 504.125 123.969C503.5 124.74 502.802 125.427 502.031 126.031C501.26 126.615 500.5 127.073 499.75 127.406C499.667 127.448 499.542 127.469 499.375 127.469C499.208 127.469 499.073 127.396 498.969 127.25C498.865 127.104 498.781 126.917 498.719 126.688C498.677 126.542 498.646 126.438 498.625 126.375C498.604 126.312 498.583 126.26 498.562 126.219C498.542 126.177 498.51 126.135 498.469 126.094C498.448 126.052 498.406 125.969 498.344 125.844C498.281 125.781 498.25 125.698 498.25 125.594C498.271 125.469 498.281 125.385 498.281 125.344C498.281 125.177 498.177 125.01 497.969 124.844C497.615 124.594 497.438 124.312 497.438 124C497.438 123.875 497.479 123.74 497.562 123.594C497.667 123.427 497.802 123.26 497.969 123.094C498.115 122.948 498.344 122.74 498.656 122.469C498.99 122.198 499.344 121.896 499.719 121.562C500.115 121.208 500.521 120.823 500.938 120.406C501.375 119.99 501.76 119.552 502.094 119.094C502.448 118.615 502.729 118.125 502.938 117.625C503.167 117.104 503.281 116.583 503.281 116.062C503.281 116 503.281 115.927 503.281 115.844C503.281 115.76 503.26 115.688 503.219 115.625C502.823 115.333 502.448 115.167 502.094 115.125C501.74 115.062 501.365 115.031 500.969 115.031C499.948 115.031 498.729 115.219 497.312 115.594C495.896 115.969 494.375 116.51 492.75 117.219C491.125 117.927 489.427 118.802 487.656 119.844C485.906 120.885 484.177 122.083 482.469 123.438C480.76 124.771 479.104 126.25 477.5 127.875C475.917 129.479 474.479 131.219 473.188 133.094C472.188 134.573 471.333 135.927 470.625 137.156C469.938 138.365 469.375 139.49 468.938 140.531C468.521 141.552 468.219 142.51 468.031 143.406C467.844 144.281 467.75 145.104 467.75 145.875ZM524.344 139.5C523.677 140.5 522.948 141.5 522.156 142.5C521.365 143.5 520.594 144.438 519.844 145.312C519.115 146.188 518.448 146.958 517.844 147.625C517.24 148.292 516.781 148.781 516.469 149.094C515.948 149.635 515.385 150.229 514.781 150.875C514.177 151.521 513.594 152.146 513.031 152.75C512.49 153.354 511.99 153.917 511.531 154.438C511.073 154.938 510.719 155.312 510.469 155.562C510.135 155.917 509.896 156.146 509.75 156.25C509.625 156.375 509.5 156.438 509.375 156.438C509.333 156.438 509.292 156.427 509.25 156.406C509.208 156.385 509.167 156.375 509.125 156.375C509 156.375 508.938 156.312 508.938 156.188C508.938 155.979 508.979 155.833 509.062 155.75C508.875 155.875 508.719 155.979 508.594 156.062C508.49 156.146 508.302 156.188 508.031 156.188C507.74 156.188 507.521 156.031 507.375 155.719C507.25 155.406 507.167 155.115 507.125 154.844C507.083 154.76 507.062 154.656 507.062 154.531C507.062 154.24 507.167 153.896 507.375 153.5C507.604 153.083 508.042 152.448 508.688 151.594C507.75 152.26 506.771 152.917 505.75 153.562C504.729 154.208 503.74 154.802 502.781 155.344C501.823 155.865 500.938 156.281 500.125 156.594C499.312 156.927 498.625 157.094 498.062 157.094C497.583 157.073 497.156 156.938 496.781 156.688C496.406 156.458 496.083 156.167 495.812 155.812C495.542 155.438 495.333 155.021 495.188 154.562C495.042 154.104 494.969 153.625 494.969 153.125C495.01 151.875 495.312 150.729 495.875 149.688C496.417 148.625 497.125 147.656 498 146.781C498.854 145.906 499.823 145.135 500.906 144.469C501.99 143.781 503.094 143.188 504.219 142.688C505.365 142.188 506.479 141.781 507.562 141.469C508.646 141.135 509.615 140.885 510.469 140.719C511.469 140.51 512.354 140.375 513.125 140.312C513.896 140.229 514.562 140.188 515.125 140.188C516.438 140.188 517.292 140.406 517.688 140.844C518.042 140.427 518.385 140.042 518.719 139.688C519.073 139.312 519.396 138.948 519.688 138.594C520.562 137.594 521.177 136.688 521.531 135.875C521.885 135.042 522.062 134.323 522.062 133.719C522.062 133.427 522.031 133.156 521.969 132.906C521.906 132.656 521.802 132.438 521.656 132.25C521.406 131.958 521.135 131.719 520.844 131.531C520.573 131.323 520.292 131.219 520 131.219C519.542 131.219 518.802 131.302 517.781 131.469C516.76 131.635 515.583 131.99 514.25 132.531C512.917 133.073 511.5 133.854 510 134.875C508.5 135.875 507.031 137.219 505.594 138.906C505.385 139.115 505.24 139.219 505.156 139.219C505.052 139.219 504.938 139.177 504.812 139.094C504.708 138.99 504.583 138.885 504.438 138.781C504.271 138.719 504.135 138.656 504.031 138.594C503.927 138.51 503.875 138.406 503.875 138.281C503.875 138.115 503.938 137.938 504.062 137.75C504.229 137.438 504.552 137 505.031 136.438C505.51 135.854 506.115 135.229 506.844 134.562C507.573 133.896 508.417 133.219 509.375 132.531C510.333 131.844 511.375 131.219 512.5 130.656C513.625 130.094 514.823 129.635 516.094 129.281C517.365 128.927 518.688 128.75 520.062 128.75C520.854 128.75 521.635 128.854 522.406 129.062C523.177 129.25 523.802 129.573 524.281 130.031C524.948 130.385 525.438 130.906 525.75 131.594C526.062 132.26 526.219 132.99 526.219 133.781C526.219 134.76 526.042 135.76 525.688 136.781C525.333 137.781 524.885 138.688 524.344 139.5ZM506.812 145.312C505.5 145.958 504.354 146.625 503.375 147.312C502.417 147.979 501.615 148.635 500.969 149.281C500.323 149.906 499.833 150.51 499.5 151.094C499.146 151.656 498.938 152.156 498.875 152.594C498.917 152.656 499.031 152.688 499.219 152.688C499.615 152.688 500.219 152.542 501.031 152.25C501.823 151.938 502.719 151.521 503.719 151C504.74 150.479 505.823 149.885 506.969 149.219C508.115 148.552 509.229 147.854 510.312 147.125C511.417 146.396 512.448 145.667 513.406 144.938C514.385 144.208 515.198 143.521 515.844 142.875C514.594 142.875 513.25 143.052 511.812 143.406C510.375 143.76 508.708 144.396 506.812 145.312ZM542.781 128.281C542.781 128.448 542.812 128.615 542.875 128.781C542.958 128.948 543 129.146 543 129.375C543 129.667 542.865 130.01 542.594 130.406C542.469 130.573 542.25 130.854 541.938 131.25C541.625 131.625 541.26 132.083 540.844 132.625C540.427 133.146 539.969 133.74 539.469 134.406C538.99 135.052 538.5 135.719 538 136.406C538.917 135.635 539.938 134.792 541.062 133.875C542.188 132.958 543.323 132.104 544.469 131.312C545.635 130.521 546.76 129.865 547.844 129.344C548.948 128.802 549.927 128.531 550.781 128.531C550.99 128.531 551.156 128.552 551.281 128.594C551.427 128.615 551.583 128.646 551.75 128.688L552.406 129.062C552.823 129.375 553.135 129.812 553.344 130.375C553.573 130.938 553.688 131.458 553.688 131.938C553.688 132.438 553.542 133.01 553.25 133.656C552.958 134.302 552.604 134.948 552.188 135.594C551.771 136.24 551.333 136.844 550.875 137.406C550.417 137.948 550.031 138.365 549.719 138.656C549.406 138.948 549.083 139.24 548.75 139.531C548.438 139.823 548.125 140.094 547.812 140.344C547.521 140.573 547.24 140.771 546.969 140.938C546.719 141.083 546.5 141.156 546.312 141.156C546.083 141.156 545.906 141.135 545.781 141.094C545.677 141.031 545.604 140.969 545.562 140.906C545.5 140.823 545.469 140.729 545.469 140.625C545.469 140.521 545.427 140.479 545.344 140.5C545.281 140.5 545.219 140.5 545.156 140.5C545.094 140.5 545.031 140.5 544.969 140.5C544.906 140.479 544.844 140.438 544.781 140.375C544.552 140.271 544.396 140.104 544.312 139.875C544.229 139.646 544.167 139.323 544.125 138.906C544.125 138.385 544.156 138.021 544.219 137.812C544.302 137.604 544.427 137.438 544.594 137.312C544.781 137.167 544.927 137.052 545.031 136.969C545.156 136.865 545.281 136.76 545.406 136.656C545.531 136.531 545.667 136.406 545.812 136.281C545.979 136.135 546.188 135.948 546.438 135.719C547.375 134.927 548.083 134.177 548.562 133.469C549.062 132.76 549.333 132.167 549.375 131.688C549 131.729 548.458 131.927 547.75 132.281C547.062 132.635 546.167 133.229 545.062 134.062C543.979 134.875 542.667 135.969 541.125 137.344C539.604 138.719 537.812 140.438 535.75 142.5C535.188 143.062 534.458 143.854 533.562 144.875C532.667 145.875 531.729 146.948 530.75 148.094C529.792 149.24 528.854 150.365 527.938 151.469C527.021 152.552 526.26 153.469 525.656 154.219L523.906 156.562C523.781 156.708 523.667 156.823 523.562 156.906C523.458 156.99 523.323 157.031 523.156 157.031C522.927 157.031 522.667 156.896 522.375 156.625C522.208 156.479 522.115 156.302 522.094 156.094C522.052 155.906 521.938 155.615 521.75 155.219C521.542 154.865 521.406 154.562 521.344 154.312C521.26 154.042 521.198 153.792 521.156 153.562C521.156 153.5 521.167 153.438 521.188 153.375C521.208 153.312 521.24 153.229 521.281 153.125C521.406 152.854 521.75 152.219 522.312 151.219C522.854 150.198 523.625 148.979 524.625 147.562C524.875 147.229 525.271 146.698 525.812 145.969C526.354 145.219 526.99 144.365 527.719 143.406C528.448 142.448 529.25 141.406 530.125 140.281C531 139.135 531.885 138 532.781 136.875C533.677 135.729 534.562 134.615 535.438 133.531C536.333 132.448 537.156 131.479 537.906 130.625C538.677 129.75 539.354 129.021 539.938 128.438C540.521 127.833 540.958 127.458 541.25 127.312L541.656 127.188C541.76 127.188 541.802 127.229 541.781 127.312C541.781 127.396 541.844 127.469 541.969 127.531C542.198 127.594 542.375 127.677 542.5 127.781C542.646 127.885 542.74 128.052 542.781 128.281ZM552.062 150.062C551.979 150.104 551.833 150.167 551.625 150.25C551.396 150.312 551.167 150.417 550.938 150.562C550.708 150.708 550.5 150.885 550.312 151.094C550.104 151.302 549.979 151.552 549.938 151.844C550.021 151.948 550.135 152.01 550.281 152.031C550.406 152.031 550.531 152.031 550.656 152.031C550.865 152.031 551 152.021 551.062 152C551.125 152 551.177 151.99 551.219 151.969C552.031 151.802 552.906 151.594 553.844 151.344C554.781 151.073 555.729 150.771 556.688 150.438C557.667 150.083 558.625 149.708 559.562 149.312C560.5 148.917 561.365 148.49 562.156 148.031C562.969 147.573 563.677 147.104 564.281 146.625C564.906 146.146 565.375 145.646 565.688 145.125C565.479 144.875 565.062 144.667 564.438 144.5C563.833 144.333 563.104 144.177 562.25 144.031C561.417 143.885 560.51 143.75 559.531 143.625C558.573 143.479 557.646 143.312 556.75 143.125C556.25 143.021 555.833 142.885 555.5 142.719C555.188 142.531 554.927 142.333 554.719 142.125C554.51 141.896 554.333 141.656 554.188 141.406C554.042 141.156 553.906 140.896 553.781 140.625C553.594 140.208 553.448 139.823 553.344 139.469C553.26 139.115 553.219 138.719 553.219 138.281C553.219 137.885 553.25 137.583 553.312 137.375C553.375 137.146 553.49 136.938 553.656 136.75C554.281 135.958 555.115 135.24 556.156 134.594C557.219 133.948 558.375 133.375 559.625 132.875C560.875 132.375 562.177 131.948 563.531 131.594C564.885 131.24 566.167 130.948 567.375 130.719C568.583 130.469 569.656 130.292 570.594 130.188C571.552 130.083 572.271 130.031 572.75 130.031C573.125 130.031 573.427 130.073 573.656 130.156C573.885 130.24 574.115 130.281 574.344 130.281C574.698 130.281 574.99 130.417 575.219 130.688C575.448 130.938 575.562 131.208 575.562 131.5C575.562 131.938 575.302 132.438 574.781 133C574.281 133.542 573.469 134.104 572.344 134.688C571.26 135.229 570.427 135.604 569.844 135.812C569.26 136 568.854 136.094 568.625 136.094C568.458 136.094 568.375 136.052 568.375 135.969C568.333 135.906 568.312 135.833 568.312 135.75C568.312 135.667 568.312 135.573 568.312 135.469C568.312 134.948 568.417 134.427 568.625 133.906C568.292 133.906 567.906 133.938 567.469 134C567.031 134.062 566.51 134.177 565.906 134.344C565.323 134.51 564.635 134.74 563.844 135.031C563.073 135.302 562.177 135.656 561.156 136.094C559.656 136.698 558.521 137.208 557.75 137.625C557 138.042 556.49 138.427 556.219 138.781C556.74 139.073 557.427 139.302 558.281 139.469C559.135 139.635 560.042 139.792 561 139.938C561.979 140.083 562.948 140.26 563.906 140.469C564.885 140.656 565.74 140.927 566.469 141.281C567.51 141.823 568.229 142.458 568.625 143.188C568.833 143.521 568.979 143.906 569.062 144.344C569.167 144.781 569.219 145.208 569.219 145.625C569.219 146.208 569.156 146.656 569.031 146.969C568.51 148.177 567.781 149.25 566.844 150.188C565.906 151.125 564.854 151.938 563.688 152.625C562.542 153.312 561.323 153.896 560.031 154.375C558.76 154.854 557.51 155.25 556.281 155.562C555.052 155.875 553.906 156.115 552.844 156.281C551.781 156.448 550.885 156.562 550.156 156.625C549.948 156.667 549.75 156.688 549.562 156.688C549.354 156.708 549.167 156.719 549 156.719C548.458 156.719 547.948 156.625 547.469 156.438C546.99 156.271 546.573 156.031 546.219 155.719C545.865 155.385 545.583 154.99 545.375 154.531C545.146 154.052 545.031 153.521 545.031 152.938C545.031 152.188 545.198 151.542 545.531 151C545.844 150.458 546.24 150.01 546.719 149.656C547.198 149.281 547.719 148.979 548.281 148.75C548.844 148.521 549.375 148.333 549.875 148.188C550.271 148.083 550.594 148.01 550.844 147.969C551.073 147.906 551.292 147.875 551.5 147.875C551.667 147.875 551.792 147.906 551.875 147.969C551.938 148.01 552 148.083 552.062 148.188C552.104 148.354 552.146 148.552 552.188 148.781C552.229 149.01 552.25 149.24 552.25 149.469C552.25 149.594 552.229 149.719 552.188 149.844C552.167 149.948 552.125 150.021 552.062 150.062Z" fill="#F83A3A"/>
</g>
<rect width="963" height="72" fill="url(#paint0_linear_102_2)"/>
<defs>
<filter id="filter0_d_102_2" x="372.469" y="110.75" width="207.094" height="54.4688" filterUnits="userSpaceOnUse" color-interpolation-filters="sRGB">
<feFlood flood-opacity="0" result="BackgroundImageFix"/>
<feColorMatrix in="SourceAlpha" type="matrix" values="0 0 0 0 0 0 0 0 0 0 0 0 0 0 0 0 0 0 127 0" result="hardAlpha"/>
<feOffset dy="4"/>
<feGaussianBlur stdDeviation="2"/>
<feComposite in2="hardAlpha" operator="out"/>
<feColorMatrix type="matrix" values="0 0 0 0 0 0 0 0 0 0 0 0 0 0 0 0 0 0 0.25 0"/>
<feBlend mode="normal" in2="BackgroundImageFix" result="effect1_dropShadow_102_2"/>
<feBlend mode="normal" in="SourceGraphic" in2="effect1_dropShadow_102_2" result="shape"/>
</filter>
<linearGradient id="paint0_linear_102_2" x1="481.5" y1="0" x2="481.5" y2="72" gradientUnits="userSpaceOnUse">
<stop stop-color="#D3DEB0"/>
<stop offset="1" stop-color="#D3DEB0" stop-opacity="0"/>
</linearGradient>
</defs>
</svg>
